# xmcd CD database file generated by Grip 2.95
# 
# Track frame offsets:
#       150
#       22567
#       34777
#       52335
#       74712
#       94895
#       113415
#       139305
#       163447
#       180382
#       199715
#       220912
#       238347
#       256335
#       273617
#       293365
#       312252
# 
# Disc length: 4413 seconds
# 
# Revision: 3
# Processed by: cddbd v1.4b41PL1 Copyright (c) Steve Scherf et al.
# Submitted via: Grip 2.95
# 
DISCID=01113b11
DTITLE=Otis Spann - The Complete Candid Otis Spann/Lightin' Hopkins Sessions Disc 2
DYEAR=1900
DGENRE=
TTITLE0=Monkey Face Blues
TTITLE1=One Doggone Reason
TTITLE2=Strange Woman Blues
TTITLE3=It Hurts Me Too
TTITLE4=Baby Child (take 3)
TTITLE5=Baby Child (take 5)
TTITLE6=Talkin' The Blues (take 1)
TTITLE7=Talkin' The Blues (take 3)
TTITLE8=Can't Stand Your Evil Ways (take 2)
TTITLE9=Otis' Blues
TTITLE10=Half Ain't Been Told
TTITLE11=Can't Stand Your Evil Ways (take 4)
TTITLE12=Goin' Down Slow
TTITLE13=The Girl I Love
TTITLE14=Bad Condition
TTITLE15=Come Day, Go Day (take 2)
TTITLE16=Come Day, Go Day (take 3)
EXTD=
EXTT0=
EXTT1=
EXTT2=
EXTT3=
EXTT4=
EXTT5=
EXTT6=
EXTT7=
EXTT8=
EXTT9=
EXTT10=
EXTT11=
EXTT12=
EXTT13=
EXTT14=
EXTT15=
EXTT16=
PLAYORDER=
